<svg width="50" height="40" viewBox="0 0 50 40" fill="none" xmlns="http://www.w3.org/2000/svg">
<path d="M48.4375 7.57856H1.56246C0.699925 7.57856 -9.4801e-07 5.88079 -9.4801e-07 3.78928C-9.4801e-07 1.69746 0.700055 0 1.56246 0H48.4375C49.3001 0 50 1.69778 50 3.78928C50 5.88079 49.2999 7.57856 48.4375 7.57856Z" fill="white"/>
<path d="M1.24997 17.9667H38.75C39.4401 17.9667 40 19.3249 40 20.9981C40 22.6713 39.44 24.0296 38.75 24.0296H1.24997C0.559941 24.0296 3.88889e-07 22.6713 3.88889e-07 20.9981C3.88889e-07 19.3249 0.559941 17.9667 1.24997 17.9667Z" fill="white"/>
<path d="M0.984827 33.9371H20.6818C21.2255 33.9371 21.6667 35.2954 21.6667 36.9686C21.6667 38.642 21.2254 40 20.6818 40H0.984827C0.441167 40 6.95765e-07 38.6418 6.95765e-07 36.9686C-8.11684e-05 35.2951 0.441167 33.9371 0.984827 33.9371Z" fill="white"/>
</svg>
