<svg width="66" height="67" viewBox="0 0 66 67" fill="none" xmlns="http://www.w3.org/2000/svg">
<path d="M65.542 11.777L33.467 0.0369941C33.334 -0.0120059 33.184 -0.0120059 33.047 0.0369941L0.916 11.748C0.674 11.836 0.514 12.068 0.514 12.324L0.604 52.808C0.604 53.058 0.756 53.283 0.989 53.374L32.036 65.773V65.845C32.036 66.048 32.138 66.238 32.306 66.353C32.474 66.464 32.685 66.488 32.876 66.415L33.261 66.261L33.646 66.415C33.718 66.443 33.796 66.46 33.873 66.46C33.994 66.46 34.113 66.423 34.217 66.355C34.385 66.24 34.487 66.05 34.487 65.847V65.775L65.534 53.376C65.766 53.283 65.919 53.06 65.919 52.808L65.946 12.355C65.943 12.095 65.784 11.867 65.542 11.777ZM32.035 63.134L3.052 51.562V15.013L32.034 26.585L32.035 63.134ZM33.259 24.439L4.783 13.066L33.263 2.56799L61.998 12.962L33.259 24.439ZM63.465 51.562L34.484 63.134V26.585L63.465 15.013V51.562ZM14.478 38.021C14.478 36.329 15.828 35.493 17.494 36.154C19.159 36.817 20.51 38.727 20.51 40.423C20.509 42.115 19.159 42.952 17.493 42.29C15.827 41.626 14.477 39.714 14.478 38.021ZM5.998 25.375C5.998 23.682 7.349 22.846 9.015 23.509C10.681 24.171 12.031 26.081 12.031 27.776C12.031 29.471 10.68 30.305 9.014 29.643C7.347 28.979 5.998 27.069 5.998 25.375ZM22.959 32.124C22.959 30.43 24.31 29.594 25.976 30.257C27.642 30.92 28.992 32.83 28.992 34.524C28.992 36.219 27.64 37.054 25.975 36.391C24.309 35.728 22.959 33.818 22.959 32.124ZM5.995 43.103C5.996 41.411 7.346 40.574 9.012 41.236C10.678 41.9 12.028 43.809 12.028 45.505C12.028 47.199 10.677 48.035 9.011 47.372C7.344 46.709 5.995 44.797 5.995 43.103ZM22.957 49.853C22.958 48.158 24.308 47.324 25.974 47.986C27.64 48.648 28.99 50.558 28.99 52.255C28.99 53.947 27.639 54.783 25.973 54.121C24.306 53.458 22.957 51.546 22.957 49.853ZM27.81 12.711C27.044 13.939 24.601 14.798 22.348 14.628C20.095 14.459 18.888 13.327 19.653 12.1C20.418 10.873 22.86 10.015 25.114 10.184C27.365 10.352 28.573 11.484 27.81 12.711ZM43.928 13.921C43.164 15.15 40.72 16.007 38.468 15.838C36.213 15.669 35.008 14.536 35.772 13.31C36.536 12.081 38.981 11.224 41.234 11.392C43.485 11.563 44.693 12.695 43.928 13.921ZM47.04 42.328C45.999 41.05 46.276 38.623 47.659 36.907C49.04 35.191 51.003 34.838 52.04 36.115C53.081 37.391 52.804 39.819 51.423 41.535C50.042 43.251 48.079 43.604 47.04 42.328Z" fill="white"/>
</svg>
