<svg width="268" height="335" viewBox="0 0 268 335" fill="none" xmlns="http://www.w3.org/2000/svg">
<path d="M134.465 171.173C173.379 171.173 204.928 132.855 204.928 85.587C204.928 38.318 194.57 0 134.465 0C74.36 0 64 38.318 64 85.587C64 132.855 95.549 171.173 134.465 171.173Z" fill="white"/>
<path d="M0.908998 286.853C0.896998 283.971 0.884998 286.041 0.908998 286.853V286.853Z" fill="white"/>
<path d="M267.085 289.104C267.123 288.315 267.098 283.63 267.085 289.104V289.104Z" fill="white"/>
<path d="M266.851 283.175C265.547 200.48 254.8 176.916 172.561 162C172.561 162 160.985 176.824 134.003 176.824C107.021 176.824 95.4425 162 95.4425 162C14.1013 176.753 2.70087 199.967 1.20187 280.489C1.07895 287.064 1.02199 287.409 1 286.646C1.005 288.076 1.01099 290.722 1.01099 295.334C1.01099 295.334 20.59 335 134.003 335C247.414 335 266.995 295.334 266.995 295.334C266.995 292.371 266.997 290.31 267 288.908C266.978 289.38 266.934 288.465 266.851 283.175Z" fill="white"/>
</svg>
