<svg width="54" height="54" viewBox="0 0 54 54" fill="none" xmlns="http://www.w3.org/2000/svg">
<g clip-path="url(#clip0)">
<path d="M32.5867 12.0777C35.0835 13.6432 36.8343 16.2923 37.1531 19.3674C38.1713 19.8431 39.3015 20.1167 40.4997 20.1167C44.874 20.1167 48.4194 16.5713 48.4194 12.1977C48.4194 7.82336 44.874 4.27795 40.4997 4.27795C36.1671 4.2793 32.6527 7.76136 32.5867 12.0777ZM27.3983 28.2932C31.7726 28.2932 35.318 24.7471 35.318 20.3735C35.318 15.9999 31.7719 12.4544 27.3983 12.4544C23.0246 12.4544 19.4772 16.0005 19.4772 20.3742C19.4772 24.7478 23.0246 28.2932 27.3983 28.2932ZM30.7577 28.833H24.0375C18.4461 28.833 13.8973 33.3826 13.8973 38.9739V47.1922L13.9182 47.3209L14.4842 47.4982C19.8202 49.1654 24.456 49.7214 28.2717 49.7214C35.7244 49.7214 40.0441 47.5966 40.3103 47.4611L40.8393 47.1936H40.8959V38.9739C40.8979 33.3826 36.3491 28.833 30.7577 28.833ZM43.8604 20.6572H37.1921C37.12 23.3252 35.9811 25.7277 34.1798 27.4556C39.1498 28.9334 42.7862 33.5423 42.7862 38.9861V41.5186C49.3703 41.2773 53.1644 39.4113 53.4144 39.286L53.9434 39.0177H54V30.7968C54 25.2061 49.4511 20.6572 43.8604 20.6572ZM13.5017 20.1181C15.051 20.1181 16.4925 19.6659 17.7136 18.8956C18.1018 16.3638 19.459 14.1513 21.3978 12.6445C21.4059 12.4962 21.4201 12.3493 21.4201 12.1997C21.4201 7.82538 17.874 4.27997 13.5017 4.27997C9.12669 4.27997 5.58195 7.82538 5.58195 12.1997C5.58195 16.572 9.12669 20.1181 13.5017 20.1181ZM20.6141 27.4556C18.8215 25.7364 17.6866 23.3468 17.6037 20.6949C17.3564 20.6767 17.1118 20.6572 16.8598 20.6572H10.1402C4.54886 20.6572 0 25.2061 0 30.7968V39.0164L0.0208911 39.1431L0.586971 39.3217C4.86762 40.658 8.68798 41.274 12.0063 41.4681V38.9861C12.0076 33.5423 15.6427 28.9348 20.6141 27.4556Z" fill="white"/>
</g>
<defs>
<clipPath id="clip0">
<rect width="54" height="54" fill="white"/>
</clipPath>
</defs>
</svg>
